<?xml version="1.0" standalone="no"?>
<!DOCTYPE svg PUBLIC "-//W3C//DTD SVG 20010904//EN"
 "http://www.w3.org/TR/2001/REC-SVG-20010904/DTD/svg10.dtd">
<svg version="1.0" xmlns="http://www.w3.org/2000/svg"
 width="500.000000pt" height="500.000000pt" viewBox="0 0 500.000000 500.000000"
 preserveAspectRatio="xMidYMid meet">
<metadata>
Created by potrace 1.16, written by Peter Selinger 2001-2019
</metadata>
<g transform="translate(0.000000,500.000000) scale(0.100000,-0.100000)"
fill="#000000" stroke="none">
<path d="M2355 4424 c-289 -23 -602 -126 -845 -277 -182 -114 -378 -292 -506
-462 -252 -333 -384 -724 -384 -1137 0 -816 509 -1523 1290 -1791 183 -62 491
-105 670 -93 497 34 888 202 1224 526 375 362 576 831 576 1343 0 413 -114
776 -348 1107 -82 116 -307 344 -420 425 -321 231 -668 349 -1058 359 -82 2
-171 2 -199 0z m460 -133 c277 -52 500 -148 737 -318 757 -544 950 -1619 431
-2403 -281 -423 -715 -700 -1228 -782 -103 -16 -407 -16 -510 0 -277 45 -547
152 -754 300 -388 277 -631 645 -729 1101 -24 117 -26 144 -26 361 0 207 2
248 22 340 167 771 767 1322 1548 1420 113 14 385 4 509 -19z"/>
<path d="M3390 3324 c-195 -69 -418 -147 -770 -269 -69 -24 -267 -93 -440
-153 -173 -61 -405 -141 -514 -180 l-200 -69 142 -145 143 -146 69 -173 c39
-95 74 -177 79 -182 5 -5 31 6 62 27 30 20 59 36 65 36 6 0 37 -28 69 -62 107
-115 367 -378 374 -378 3 0 83 127 177 283 201 331 440 724 694 1142 100 165
184 303 187 308 7 12 -5 8 -137 -39z"/>
</g>
</svg>
